<svg id="visual" viewBox="0 0 960 300" width="960" height="300" xmlns="http://www.w3.org/2000/svg" xmlns:xlink="http://www.w3.org/1999/xlink" version="1.1"><path d="M0 70L22.8 67C45.7 64 91.3 58 137 50C182.7 42 228.3 32 274 30C319.7 28 365.3 34 411.2 44C457 54 503 68 548.8 70C594.7 72 640.3 62 686 51C731.7 40 777.3 28 823 26.5C868.7 25 914.3 34 937.2 38.5L960 43L960 0L937.2 0C914.3 0 868.7 0 823 0C777.3 0 731.7 0 686 0C640.3 0 594.7 0 548.8 0C503 0 457 0 411.2 0C365.3 0 319.7 0 274 0C228.3 0 182.7 0 137 0C91.3 0 45.7 0 22.8 0L0 0Z" fill="#7ebfff"></path><path d="M0 112L22.8 122.5C45.7 133 91.3 154 137 164C182.7 174 228.3 173 274 157.5C319.7 142 365.3 112 411.2 108.5C457 105 503 128 548.8 147C594.7 166 640.3 181 686 177C731.7 173 777.3 150 823 139.5C868.7 129 914.3 131 937.2 132L960 133L960 41L937.2 36.5C914.3 32 868.7 23 823 24.5C777.3 26 731.7 38 686 49C640.3 60 594.7 70 548.8 68C503 66 457 52 411.2 42C365.3 32 319.7 26 274 28C228.3 30 182.7 40 137 48C91.3 56 45.7 62 22.8 65L0 68Z" fill="#51acff"></path><path d="M0 211L22.8 207C45.7 203 91.3 195 137 207.5C182.7 220 228.3 253 274 241.5C319.7 230 365.3 174 411.2 161C457 148 503 178 548.8 205.5C594.7 233 640.3 258 686 249C731.7 240 777.3 197 823 176.5C868.7 156 914.3 158 937.2 159L960 160L960 131L937.2 130C914.3 129 868.7 127 823 137.5C777.3 148 731.7 171 686 175C640.3 179 594.7 164 548.8 145C503 126 457 103 411.2 106.5C365.3 110 319.7 140 274 155.5C228.3 171 182.7 172 137 162C91.3 152 45.7 131 22.8 120.5L0 110Z" fill="#2c93e9"></path><path d="M0 301L22.8 301C45.7 301 91.3 301 137 301C182.7 301 228.3 301 274 301C319.7 301 365.3 301 411.2 301C457 301 503 301 548.8 301C594.7 301 640.3 301 686 301C731.7 301 777.3 301 823 301C868.7 301 914.3 301 937.2 301L960 301L960 158L937.2 157C914.3 156 868.7 154 823 174.5C777.3 195 731.7 238 686 247C640.3 256 594.7 231 548.8 203.5C503 176 457 146 411.2 159C365.3 172 319.7 228 274 239.5C228.3 251 182.7 218 137 205.5C91.3 193 45.7 201 22.8 205L0 209Z" fill="#2177bf"></path></svg>