<svg id="visual" viewBox="0 0 960 300" width="960" height="300" xmlns="http://www.w3.org/2000/svg" xmlns:xlink="http://www.w3.org/1999/xlink" version="1.1"><path d="M0 73L22.8 63.5C45.7 54 91.3 35 137 25C182.7 15 228.3 14 274 27.5C319.7 41 365.3 69 411.2 82.5C457 96 503 95 548.8 98C594.7 101 640.3 108 686 104C731.7 100 777.3 85 823 73C868.7 61 914.3 52 937.2 47.5L960 43L960 0L937.2 0C914.3 0 868.7 0 823 0C777.3 0 731.7 0 686 0C640.3 0 594.7 0 548.8 0C503 0 457 0 411.2 0C365.3 0 319.7 0 274 0C228.3 0 182.7 0 137 0C91.3 0 45.7 0 22.8 0L0 0Z" fill="#7ebfff"></path><path d="M0 148L22.8 152C45.7 156 91.3 164 137 155.5C182.7 147 228.3 122 274 121C319.7 120 365.3 143 411.2 165.5C457 188 503 210 548.8 211.5C594.7 213 640.3 194 686 176C731.7 158 777.3 141 823 125C868.7 109 914.3 94 937.2 86.5L960 79L960 41L937.2 45.5C914.3 50 868.7 59 823 71C777.3 83 731.7 98 686 102C640.3 106 594.7 99 548.8 96C503 93 457 94 411.2 80.5C365.3 67 319.7 39 274 25.5C228.3 12 182.7 13 137 23C91.3 33 45.7 52 22.8 61.5L0 71Z" fill="#51acff"></path><path d="M0 250L22.8 247.5C45.7 245 91.3 240 137 240C182.7 240 228.3 245 274 247.5C319.7 250 365.3 250 411.2 249C457 248 503 246 548.8 250.5C594.7 255 640.3 266 686 263C731.7 260 777.3 243 823 235.5C868.7 228 914.3 230 937.2 231L960 232L960 77L937.2 84.5C914.3 92 868.7 107 823 123C777.3 139 731.7 156 686 174C640.3 192 594.7 211 548.8 209.5C503 208 457 186 411.2 163.5C365.3 141 319.7 118 274 119C228.3 120 182.7 145 137 153.5C91.3 162 45.7 154 22.8 150L0 146Z" fill="#2c93e9"></path><path d="M0 301L22.8 301C45.7 301 91.3 301 137 301C182.7 301 228.3 301 274 301C319.7 301 365.3 301 411.2 301C457 301 503 301 548.8 301C594.7 301 640.3 301 686 301C731.7 301 777.3 301 823 301C868.7 301 914.3 301 937.2 301L960 301L960 230L937.2 229C914.3 228 868.7 226 823 233.5C777.3 241 731.7 258 686 261C640.3 264 594.7 253 548.8 248.5C503 244 457 246 411.2 247C365.3 248 319.7 248 274 245.5C228.3 243 182.7 238 137 238C91.3 238 45.7 243 22.8 245.5L0 248Z" fill="#2177bf"></path></svg>