<svg id="visual" viewBox="0 0 960 300" width="960" height="300" xmlns="http://www.w3.org/2000/svg" xmlns:xlink="http://www.w3.org/1999/xlink" version="1.1"><path d="M0 46L22.8 52C45.7 58 91.3 70 137 75C182.7 80 228.3 78 274 78.5C319.7 79 365.3 82 411.2 71.5C457 61 503 37 548.8 32C594.7 27 640.3 41 686 46C731.7 51 777.3 47 823 49.5C868.7 52 914.3 61 937.2 65.5L960 70L960 0L937.2 0C914.3 0 868.7 0 823 0C777.3 0 731.7 0 686 0C640.3 0 594.7 0 548.8 0C503 0 457 0 411.2 0C365.3 0 319.7 0 274 0C228.3 0 182.7 0 137 0C91.3 0 45.7 0 22.8 0L0 0Z" fill="#7ebfff"></path><path d="M0 190L22.8 178C45.7 166 91.3 142 137 131.5C182.7 121 228.3 124 274 126C319.7 128 365.3 129 411.2 129C457 129 503 128 548.8 146.5C594.7 165 640.3 203 686 205.5C731.7 208 777.3 175 823 157.5C868.7 140 914.3 138 937.2 137L960 136L960 68L937.2 63.5C914.3 59 868.7 50 823 47.5C777.3 45 731.7 49 686 44C640.3 39 594.7 25 548.8 30C503 35 457 59 411.2 69.5C365.3 80 319.7 77 274 76.5C228.3 76 182.7 78 137 73C91.3 68 45.7 56 22.8 50L0 44Z" fill="#51acff"></path><path d="M0 205L22.8 201C45.7 197 91.3 189 137 188C182.7 187 228.3 193 274 187C319.7 181 365.3 163 411.2 164C457 165 503 185 548.8 205.5C594.7 226 640.3 247 686 247C731.7 247 777.3 226 823 208.5C868.7 191 914.3 177 937.2 170L960 163L960 134L937.2 135C914.3 136 868.7 138 823 155.5C777.3 173 731.7 206 686 203.5C640.3 201 594.7 163 548.8 144.5C503 126 457 127 411.2 127C365.3 127 319.7 126 274 124C228.3 122 182.7 119 137 129.5C91.3 140 45.7 164 22.8 176L0 188Z" fill="#2c93e9"></path><path d="M0 301L22.8 301C45.7 301 91.3 301 137 301C182.7 301 228.3 301 274 301C319.7 301 365.3 301 411.2 301C457 301 503 301 548.8 301C594.7 301 640.3 301 686 301C731.7 301 777.3 301 823 301C868.7 301 914.3 301 937.2 301L960 301L960 161L937.2 168C914.3 175 868.7 189 823 206.5C777.3 224 731.7 245 686 245C640.3 245 594.7 224 548.8 203.5C503 183 457 163 411.2 162C365.3 161 319.7 179 274 185C228.3 191 182.7 185 137 186C91.3 187 45.7 195 22.8 199L0 203Z" fill="#2177bf"></path></svg>